<?xml version="1.0" standalone="no"?>
<!DOCTYPE svg PUBLIC "-//W3C//DTD SVG 20010904//EN"
 "http://www.w3.org/TR/2001/REC-SVG-20010904/DTD/svg10.dtd">
<svg version="1.0" xmlns="http://www.w3.org/2000/svg"
 width="607.000000pt" height="350.000000pt" viewBox="0 0 607.000000 350.000000"
 preserveAspectRatio="xMidYMid meet">

<g transform="translate(0.000000,350.000000) scale(0.100000,-0.100000)"
fill="#000000" stroke="none">
<path d="M0 1750 l0 -1750 3035 0 3035 0 0 1750 0 1750 -3035 0 -3035 0 0
-1750z m2466 182 c65 -33 111 -93 130 -167 6 -25 5 -25 -60 -25 -59 0 -67 2
-76 23 -23 54 -59 77 -122 77 -99 0 -161 -75 -161 -198 -1 -88 15 -133 64
-176 35 -32 45 -36 95 -36 30 0 68 7 84 15 32 16 60 61 60 95 0 18 -6 20 -65
20 l-65 0 0 50 0 50 130 0 130 0 -2 -167 -3 -168 -40 0 c-36 0 -41 3 -51 33
l-10 32 -24 -25 c-36 -39 -100 -59 -169 -52 -109 9 -187 62 -239 162 -24 45
-27 61 -27 155 0 88 4 113 23 156 30 65 95 129 158 154 65 27 180 23 240 -8z
m364 -37 l0 -55 -60 0 -60 0 0 55 0 55 60 0 60 0 0 -55z m623 45 c14 0 17 -9
17 -45 0 -44 -1 -45 -33 -45 -40 0 -57 -15 -57 -52 0 -26 3 -28 40 -28 l40 0
0 -40 c0 -40 0 -40 -40 -40 l-40 0 -2 -182 -3 -183 -57 -3 -58 -3 0 186 0 185
-40 0 c-40 0 -40 0 -40 39 0 39 1 40 38 43 36 3 37 4 42 48 7 55 23 86 53 102
31 17 79 27 102 22 11 -2 28 -4 38 -4z m187 -45 l0 -55 -60 0 -60 0 0 55 0 55
60 0 60 0 0 -55z m1040 -260 l0 -316 -57 3 c-52 3 -58 6 -61 26 l-3 23 -29
-25 c-57 -47 -157 -42 -220 11 -70 58 -99 189 -66 291 30 89 124 151 207 136
45 -9 86 -30 98 -51 8 -13 10 15 11 100 l0 117 60 0 60 0 0 -315z m-1598 208
l3 -68 43 -3 c42 -3 42 -3 42 -43 l0 -39 -45 0 -45 0 0 -123 c0 -136 4 -147
57 -147 33 0 33 0 33 -50 l0 -50 -60 0 c-69 0 -123 19 -139 48 -7 12 -11 82
-11 171 l0 150 -37 3 c-36 3 -38 5 -41 40 -3 36 -2 37 35 40 l38 3 3 68 3 67
59 0 59 0 3 -67z m-1643 42 c2 -2 -27 -119 -65 -259 -61 -231 -70 -256 -88
-256 -51 1 -54 -16 83 488 11 41 14 43 39 37 15 -4 29 -8 31 -10z m-252 -52
c13 -20 8 -26 -96 -108 -61 -48 -108 -92 -105 -96 3 -5 52 -45 110 -90 57 -45
104 -84 104 -87 0 -3 -9 -16 -21 -28 l-21 -23 -144 116 c-80 64 -143 117 -142
118 38 37 284 225 291 222 6 -2 17 -12 24 -24z m486 -83 c75 -61 137 -114 137
-118 -1 -4 -65 -58 -143 -120 -142 -112 -142 -112 -159 -91 -10 12 -18 25 -18
29 0 5 49 48 110 96 l109 87 -109 86 c-60 47 -109 90 -110 95 0 11 30 46 39
46 3 0 68 -50 144 -110z m2418 15 c51 -27 63 -79 64 -269 l0 -171 -60 0 -60 0
-5 163 c-5 157 -6 165 -29 183 -26 21 -48 24 -86 9 -44 -17 -55 -62 -55 -220
l0 -140 -60 0 -60 0 0 225 0 225 55 0 c52 0 55 -1 55 -25 0 -31 2 -31 36 0 15
14 41 29 58 35 37 11 111 3 147 -15z m953 19 c12 -5 16 -20 16 -59 l0 -52 -51
-5 c-37 -4 -58 -12 -77 -32 -26 -26 -27 -31 -32 -169 l-5 -142 -60 0 -60 0 -3
223 -2 222 60 0 60 0 0 -37 0 -37 28 32 c21 26 64 50 109 62 1 0 8 -3 17 -6z
m-2214 -239 l0 -225 -60 0 -60 0 0 225 0 225 60 0 60 0 0 -225z m810 0 l0
-225 -60 0 -60 0 0 225 0 225 60 0 60 0 0 -225z"/>
<path d="M4397 1670 c-56 -44 -57 -181 -2 -236 26 -26 81 -32 117 -13 42 23
62 135 37 207 -21 60 -101 82 -152 42z"/>
</g>
</svg>
